# xmcd
# 
# Track frame offsets:
#     150
#     17405
#     29905
# 
# Disc length: 629
# 
# Revision: 0
# Processed by: cddbd v1.5.2PL0 Copyright (c) Steve Scherf et al.
# Submitted via: fre:ac v1.0.31
# 
DISCID=1d027303
DTITLE=濱田マリ - 人の息子
DYEAR=1995
DGENRE=JPop
TTITLE0=人の息子
TTITLE1=さのば いのしし
TTITLE2=人の息子（オリジナル・カラオケ）
EXTD=
EXTT0=
EXTT1=
EXTT2=
PLAYORDER=
